<svg width="86" height="85" viewBox="0 0 86 85" fill="none" xmlns="http://www.w3.org/2000/svg">
<path d="M53.4922 3.40154C53.7644 3.40154 54.3305 3.48863 55.4628 3.89146L55.8003 4.01122C58.3371 4.92576 60.7323 5.78585 62.79 7.16854C63.3017 7.50605 63.465 7.77823 63.4867 7.83266C63.4867 7.85444 63.4541 7.95243 63.367 8.09396C59.9157 13.7445 62.7029 17.6966 65.5227 20.5055C67.809 22.7809 70.0191 23.8479 72.4905 23.8479C73.9386 23.8479 75.441 23.4668 77.0959 22.6938C77.7164 22.3999 78.0431 22.3345 78.1737 22.3237C78.2826 22.4216 78.5657 22.7156 79.012 23.543C80.1987 25.7096 81.1895 28.0395 82.0605 30.6851C82.5722 32.2202 82.5939 32.3182 80.9826 33.0476L80.5036 33.2654C79.4475 33.7444 78.3588 34.2344 77.281 34.8876C76.0725 35.6279 74.6898 37.0977 74.668 39.8849C73.9494 40.0155 73.2091 40.1897 72.3925 40.4184C71.3909 27.8435 64.5972 18.9921 52.6865 14.7896C49.453 13.6465 46.1215 13.0695 42.79 13.0695C28.2337 13.0695 15.4738 24.2616 13.7318 38.5566C13.6229 39.4603 13.5032 40.3639 13.3943 41.2567L13.231 42.5196L13.2092 42.7156V42.9115C13.427 57.1521 22.4307 68.4205 36.1487 71.6431C36.606 71.752 37.3463 71.9262 37.7601 72.1657C37.7601 72.2746 37.771 72.4814 37.7492 72.8298C37.673 73.8206 37.5423 74.8222 37.3463 75.8021C36.2685 76.1613 35.2886 76.9126 34.581 77.9469C34.0366 78.7525 33.7644 79.5691 33.5467 80.2223C33.4269 80.5816 33.318 80.9082 33.1983 81.1259C32.9261 81.605 32.5559 82.182 32.3055 82.182C32.1858 82.182 31.9245 82.1602 31.4563 82.0078C29.072 81.2457 26.0018 80.1679 23.28 78.4695C22.692 78.0993 22.5941 77.8924 22.5941 77.8924C22.5941 77.8924 22.5505 77.6529 22.8009 76.9888C22.888 76.7601 23.0078 76.4988 23.1384 76.2267C23.2908 75.9109 23.4542 75.5517 23.6066 75.1597C25.1635 71.1532 24.6735 69.1717 21.4182 66.3192C20.5799 65.5898 19.8505 64.9257 19.3605 64.2289C17.9996 62.3127 16.2685 61.3437 14.2217 61.3437C13.2528 61.3437 12.2402 61.5615 11.0971 62.0187C10.0846 62.4216 8.44057 63.0857 7.72201 63.1728C7.27563 62.6502 6.48086 60.9736 5.99093 59.9502C5.0764 58.0231 4.17275 55.9327 3.78081 53.7117C3.72637 53.4178 3.72637 53.2109 3.73726 53.102C3.73726 53.102 3.75903 53.102 3.76992 53.102C9.25712 51.6867 11.7612 47.8761 11.2277 41.7901L11.1515 40.8756C10.7596 36.1396 10.041 35.2033 5.19616 33.1565C4.20541 32.7428 3.83524 32.4815 3.69371 32.3726C3.69371 32.2093 3.72637 31.7956 3.97678 30.9137C4.77155 28.083 5.96915 25.3721 7.53693 22.868C7.75467 22.5196 7.95064 22.3454 8.03774 22.291C8.0704 22.3019 8.11395 22.3237 8.19016 22.3672C10.041 23.5104 11.783 24.0656 13.5249 24.0656C17.2048 24.0656 19.8178 21.5071 21.4509 19.5801C24.7171 15.7368 25.3159 14.2344 23.2037 9.44398C22.5723 8.01775 22.6594 7.61492 22.6594 7.61492C22.6594 7.61492 22.8445 7.26653 24.0965 6.63506C26.7748 5.27415 29.3115 4.29429 31.87 3.61928C32.0987 3.56484 32.3055 3.53218 32.4797 3.53218C32.6539 3.53218 32.7301 3.56484 32.7301 3.56484C32.7301 3.56484 32.7955 3.64106 32.8499 3.84791C34.1999 8.70365 37.3572 11.1533 42.2239 11.1533C42.7138 11.1533 43.2364 11.1315 43.7698 11.088C44.1509 11.0553 44.4993 11.0335 44.8259 11.0009C48.4405 10.7396 50.7486 10.315 52.6103 5.16528C53.0567 3.93501 53.3616 3.55396 53.4595 3.45597C53.4704 3.45597 53.4922 3.45597 53.5249 3.45597M53.4922 0.679711C51.8482 0.679711 50.9228 1.714 50.03 4.18542C48.5167 8.35525 47.3409 7.98509 43.5086 8.31171C43.0513 8.35525 42.6158 8.37703 42.2021 8.37703C38.6202 8.37703 36.508 6.8637 35.4411 3.06403C35.0056 1.50714 33.8842 0.766809 32.4471 0.766809C32.0333 0.766809 31.5979 0.832133 31.1406 0.941006C28.2446 1.69223 25.4792 2.81362 22.8227 4.16365C19.698 5.75319 19.2408 7.24475 20.6779 10.5001C22.3219 14.2344 21.9735 14.6808 19.3388 17.7728C17.4988 19.9393 15.6697 21.3003 13.4923 21.3003C12.3164 21.3003 11.0317 20.8974 9.59462 20.0156C9.05026 19.678 8.51678 19.5256 7.99419 19.5256C6.91635 19.5256 5.93649 20.2224 5.20704 21.3873C3.49774 24.1201 2.20215 27.0487 1.33117 30.1407C0.438407 33.3198 1.00455 34.3106 4.11831 35.6279C8.42968 37.457 8.10307 37.4897 8.49501 41.997C8.88695 46.4935 7.56959 49.2806 3.07313 50.4347C1.26584 50.9028 0.775913 52.3944 1.08076 54.1581C1.50536 56.6078 2.45256 58.8723 3.50863 61.0933C5.14172 64.5119 5.88206 65.8837 7.56959 65.8837C8.59299 65.8837 9.96479 65.3829 12.0878 64.5228C12.8608 64.2071 13.5685 64.0438 14.2 64.0438C15.3213 64.0438 16.2576 64.5664 17.1286 65.7858C17.8145 66.7438 18.7182 67.5604 19.6109 68.3443C21.9844 70.4237 22.2021 71.175 21.0589 74.1472C20.8194 74.7678 20.4928 75.3666 20.2533 75.9871C19.4367 78.1428 19.8831 79.5255 21.8428 80.7449C24.5755 82.4542 27.5804 83.5974 30.6398 84.5663C31.2712 84.7623 31.8156 84.8712 32.3164 84.8712C33.7209 84.8712 34.6681 84.0655 35.5935 82.4106C36.1161 81.4634 36.2467 80.3421 36.8564 79.4384C37.2919 78.7961 37.9887 78.2735 38.7726 78.2626C39.4149 78.2626 39.698 77.8053 39.8286 77.2283C40.1553 75.8456 40.373 74.4303 40.471 73.0149C40.5472 71.9697 40.5145 70.8592 39.6327 70.1407C38.8379 69.4874 37.7709 69.2044 36.7802 68.9757C23.9659 65.9708 16.1379 55.3993 15.9419 42.8571C16.1052 41.5289 16.2794 40.2006 16.4427 38.8723C18.0105 25.9818 29.4748 15.7804 42.79 15.7804C45.7187 15.7804 48.7453 16.2703 51.772 17.3482C62.8335 21.2567 69.0066 29.4113 69.7252 41.3329C69.8014 42.6938 70.1607 43.4777 71.195 43.4777C71.478 43.4777 71.8046 43.4232 72.1966 43.3035C73.3289 42.9551 74.4938 42.6502 75.6696 42.4652C76.9543 42.2692 77.4769 41.5833 77.4007 40.3312C77.3245 39.0683 77.5749 37.8816 78.7072 37.1957C79.7741 36.5316 80.95 36.0417 82.104 35.5191C84.9129 34.2453 85.6097 32.7755 84.6408 29.825C83.7807 27.2012 82.7137 24.6644 81.3964 22.2366C80.4274 20.4619 79.5237 19.6018 78.2281 19.6018C77.5858 19.6018 76.8346 19.8196 75.9418 20.2333C74.6789 20.8212 73.5575 21.1261 72.5014 21.1261C70.7595 21.1261 69.1808 20.2986 67.4606 18.5784C64.5319 15.6497 63.465 13.1892 65.7078 9.50931C66.8074 7.7129 66.067 6.07981 64.3251 4.90398C61.8863 3.26 59.1318 2.30192 56.3991 1.32206C55.2233 0.897456 54.287 0.668823 53.5031 0.668823L53.4922 0.679711Z" fill="#2D834F"/>
</svg>
